<?xml version="1.0" encoding="UTF-8" standalone="no"?>
<!-- Created with Inkscape (http://www.inkscape.org/) -->

<svg
   width="76.561462mm"
   height="69.111443mm"
   viewBox="0 0 76.561462 69.111443"
   version="1.1"
   id="svg5"
   inkscape:version="1.2.1 (9c6d41e410, 2022-07-14)"
   sodipodi:docname="network connection.svg"
   xml:space="preserve"
   inkscape:export-filename="network connection.svg"
   inkscape:export-xdpi="96"
   inkscape:export-ydpi="96"
   xmlns:inkscape="http://www.inkscape.org/namespaces/inkscape"
   xmlns:sodipodi="http://sodipodi.sourceforge.net/DTD/sodipodi-0.dtd"
   xmlns="http://www.w3.org/2000/svg"
   xmlns:svg="http://www.w3.org/2000/svg"><sodipodi:namedview
     id="namedview7"
     pagecolor="#ffffff"
     bordercolor="#000000"
     borderopacity="0.25"
     inkscape:showpageshadow="2"
     inkscape:pageopacity="0.0"
     inkscape:pagecheckerboard="0"
     inkscape:deskcolor="#d1d1d1"
     inkscape:document-units="mm"
     showgrid="false"
     inkscape:connector-spacing="4"
     inkscape:zoom="1.5625561"
     inkscape:cx="170.87386"
     inkscape:cy="123.51556"
     inkscape:window-width="1920"
     inkscape:window-height="1057"
     inkscape:window-x="-8"
     inkscape:window-y="-8"
     inkscape:window-maximized="1"
     inkscape:current-layer="layer1" /><defs
     id="defs2"><inkscape:perspective
       sodipodi:type="inkscape:persp3d"
       inkscape:vp_x="0 : -79.388566 : 1"
       inkscape:vp_y="0 : 1000 : 0"
       inkscape:vp_z="210.00001 : -79.388566 : 1"
       inkscape:persp3d-origin="105 : -128.88857 : 1"
       id="perspective1261" /></defs><g
     inkscape:label="Layer 1"
     inkscape:groupmode="layer"
     id="layer1"
     transform="translate(-49.079211,-75.832919)"><path
       style="display:inline;opacity:1;fill:#01d400;fill-opacity:1;stroke:#000000;stroke-width:0.572465;stroke-dasharray:none;stroke-opacity:1"
       id="network"
       sodipodi:type="arc"
       sodipodi:cx="109.38538"
       sodipodi:cy="128.7401"
       sodipodi:rx="15.96303"
       sodipodi:ry="15.911625"
       sodipodi:start="0"
       sodipodi:end="6.2738472"
       sodipodi:open="true"
       sodipodi:arc-type="arc"
       d="m 125.34841,128.7401 a 15.96303,15.911625 0 0 1 -15.92576,15.91158 15.96303,15.911625 0 0 1 -16.000122,-15.83729 15.96303,15.911625 0 0 1 15.851062,-15.98553 15.96303,15.911625 0 0 1 16.07413,15.76265"
       inkscape:label="network" /><rect
       style="opacity:0;fill:#000000;stroke:#ffffff;stroke-width:0.105833"
       id="rect321"
       width="4.9104905"
       height="10.498289"
       x="57.232609"
       y="83.986313" /><rect
       style="opacity:1;fill:#01d400;fill-opacity:1;stroke:#000000;stroke-width:1.406;stroke-dasharray:none;stroke-opacity:1"
       id="rect325"
       width="26.753706"
       height="16.086088"
       x="50.798176"
       y="76.535919" /><rect
       style="opacity:1;fill:none;stroke:#000000;stroke-width:1.406;stroke-dasharray:none;stroke-opacity:1"
       id="rect1091"
       width="28.616299"
       height="4.0638542"
       x="49.782211"
       y="94.653931"
       ry="2.0319271" /><rect
       style="opacity:0;fill:#000000;stroke:#ffffff;stroke-width:0.105833"
       id="rect321-4"
       width="4.9104905"
       height="10.498289"
       x="99.479759"
       y="118.78307" /><path
       style="display:inline;fill:none;fill-rule:evenodd;stroke:#000000;stroke-width:0.696981;stroke-linecap:butt;stroke-linejoin:miter;stroke-dasharray:none;stroke-opacity:1"
       d="m 78.898011,84.586859 h 31.203699 c 0.26459,0 0.52917,0.264583 0.52917,0.529167 v 26.208534"
       id="path1424"
       inkscape:connector-type="orthogonal"
       inkscape:connector-curvature="2"
       sodipodi:nodetypes="cssc" /><g
       id="g1537"
       transform="matrix(1,0,0,1.6149702,0,-62.062201)"><g
         id="g1532"><path
           style="fill:none;fill-rule:evenodd;stroke:#000000;stroke-width:0.665;stroke-linecap:butt;stroke-linejoin:miter;stroke-dasharray:none;stroke-opacity:1"
           d="M 64.175027,119.6118 H 91.606043"
           id="path1526"
           inkscape:connector-type="orthogonal"
           inkscape:connector-curvature="1"
           sodipodi:nodetypes="cc" /><path
           style="fill:none;fill-rule:evenodd;stroke:#000000;stroke-width:0.665;stroke-linecap:butt;stroke-linejoin:miter;stroke-dasharray:none;stroke-opacity:1"
           d="m 64.344355,100.91904 v 18.4811 c 0,0.10583 -0.132292,0.21166 -0.264583,0.21166 h -0.07407"
           id="path1528"
           inkscape:connector-type="orthogonal"
           inkscape:connector-curvature="1"
           sodipodi:nodetypes="ccsc" /></g></g><path
       d="m 94.6624,129.07657 c 0.728927,0.64981 1.457325,1.26417 2.187045,1.84255 0.963084,-1.46261 2.012421,-2.80379 3.153045,-4.01584 -0.215376,-0.40561 -0.337084,-0.86889 -0.337084,-1.3597 0,-0.24235 0.02937,-0.47757 0.08573,-0.70326 -1.191684,-0.77205 -2.418027,-1.63301 -3.694906,-2.59239 -0.944298,1.94734 -1.472936,4.132 -1.472936,6.44023 h 0.0032 v 0 7.9e-4 h -0.0034 c 0,0.15663 0.0032,0.31274 0.0079,0.46805 z m 2.098675,-8.1161 c 1.278202,0.96414 2.50137,1.82827 3.687765,2.60112 0.52916,-0.56462 1.28217,-0.91731 2.1164,-0.91731 0.66172,0 1.27132,0.22199 1.75948,0.59531 0.34925,-0.23151 0.70564,-0.45482 1.06812,-0.66781 1.51024,-0.88794 3.13082,-1.6121 4.87098,-2.16349 -0.0127,-0.11536 -0.0185,-0.23231 -0.0185,-0.34978 0,-0.44291 0.0886,-0.86519 0.25003,-1.2491 -1.76768,-1.49781 -3.86106,-2.82416 -6.27062,-3.996 -2.01057,0.74877 -3.81424,1.92193 -5.303313,3.41101 -0.822325,0.82153 -1.548341,1.74016 -2.160322,2.73605 z m 9.492725,-6.74105 c 1.90553,1.02552 3.60547,2.15635 5.09349,3.40439 0.49742,-0.43603 1.12977,-0.72284 1.82562,-0.78899 0.15611,-0.76438 0.30348,-1.54146 0.44345,-2.33336 -1.34091,-0.39978 -2.76067,-0.61568 -4.23043,-0.61568 v 0.003 0 h -0.001 v -0.003 c -1.0742,0 -2.12116,0.11589 -3.13081,0.33364 z m 8.75135,0.77417 c -0.12303,0.68765 -0.25188,1.36498 -0.38682,2.03147 0.97023,0.36407 1.71953,1.18004 1.99126,2.19181 1.31339,-0.0966 2.67943,-0.11536 4.1021,-0.0529 -0.27411,-0.32517 -0.56092,-0.6395 -0.86149,-0.94033 -1.3753,-1.37451 -3.01863,-2.47941 -4.84505,-3.23003 z m 6.83287,5.69516 c -1.81795,-0.13627 -3.54198,-0.1397 -5.17578,-0.0167 -0.13388,0.69902 -0.49318,1.31815 -0.99827,1.77905 0.42968,0.66226 0.81915,1.34858 1.16707,2.05978 0.50695,1.03744 0.92446,2.12699 1.25386,3.26867 0.10028,-0.0103 0.20215,-0.0161 0.30586,-0.0161 1.30149,0 2.40295,0.85725 2.76966,2.03941 0.95938,0.0336 1.9513,0.0513 2.98106,0.0577 0.0304,-0.38709 0.0468,-0.77735 0.0468,-1.17132 h -0.003 v -7.9e-4 -5.3e-4 h 0.003 c -7.9e-4,-2.94613 -0.8636,-5.69171 -2.35029,-7.99915 z m 2.11746,10.62063 c -0.93795,-0.007 -1.8452,-0.023 -2.726,-0.0521 -0.23522,1.12978 -1.12872,2.01904 -2.2614,2.24817 0.0497,1.35387 0.003,2.76939 -0.1434,4.24736 0.83053,-0.0876 1.6727,-0.20823 2.52968,-0.35984 1.29196,-1.77218 2.19948,-3.84043 2.60112,-6.08356 z m -1.7653,7.3922 0.003,0.0151 -0.0175,0.003 c -0.40243,0.51355 -0.83503,1.00198 -1.29646,1.46341 -2.93925,2.93926 -7.00325,4.75774 -11.49297,4.75827 v 0.003 h -5.3e-4 -7.9e-4 v -0.003 c -4.48972,0 -8.55345,-1.81901 -11.494032,-4.75906 -2.939549,-2.93981 -4.758295,-7.00381 -4.758824,-11.49353 h -0.0029 v -7.9e-4 0 h 0.0029 c 0,-4.49025 1.819275,-8.55398 4.759325,-11.49403 2.940051,-2.94005 7.002991,-4.75853 11.492971,-4.75853 v -0.003 h 10e-4 v 0 0.003 c 4.49024,0 8.55398,1.81874 11.49377,4.75932 2.94005,2.93926 4.75853,7.00299 4.75853,11.49297 h 0.003 v 5.3e-4 8e-4 h -0.003 c 0,3.77798 -1.288,7.25355 -3.44805,10.01236 z m -2.27462,0.38391 c -0.42545,0.0566 -0.8472,0.10557 -1.26603,0.14605 -0.0521,0.37438 -0.11087,0.75247 -0.17463,1.13506 0.48313,-0.37624 0.94271,-0.78105 1.3753,-1.21364 z m -3.12711,2.42014 c 0.14816,-0.73686 0.2741,-1.45812 0.37809,-2.16429 -2.65139,0.13785 -5.18531,-0.0534 -7.63747,-0.57123 -0.47942,0.56858 -1.19618,0.93133 -1.99787,0.93133 -0.0595,0 -0.11826,-0.002 -0.17594,-0.006 -0.46276,1.18031 -0.9107,2.3286 -1.32133,3.41312 1.07685,0.24951 2.19921,0.38233 3.35095,0.38233 v -0.003 h 7.9e-4 5.3e-4 v 0.003 c 2.69584,0 5.2242,-0.72311 7.40225,-1.98544 z m -12.15417,1.20492 c 0.44953,-1.19486 0.89826,-2.34845 1.35414,-3.51314 -0.57415,-0.42043 -0.97023,-1.07024 -1.05357,-1.81478 -2.63022,-1.04219 -5.18028,-2.48814 -7.701494,-4.34022 -0.404284,0.68103 -0.791369,1.38694 -1.162315,2.11798 0.724694,1.4867 1.69254,2.83554 2.850092,3.9931 1.589877,1.58935 3.538277,2.8194 5.713147,3.55706 z m -9.280789,-9.29958 c 0.233363,-0.42598 0.472811,-0.84349 0.718079,-1.2528 -0.43127,-0.33946 -0.862277,-0.69109 -1.292489,-1.0541 0.130439,0.79137 0.323585,1.56316 0.57441,2.3069 z m 9.870019,-9.02626 c 0.15531,0.35507 0.24183,0.74692 0.24183,1.15914 0,0.27728 -0.0394,0.54583 -0.11219,0.79983 1.59306,0.762 3.15886,1.36684 4.74584,1.84441 0.57679,-1.72693 1.13109,-3.52028 1.64729,-5.39644 -0.4056,-0.25823 -0.74956,-0.60378 -1.00568,-1.01044 -1.65232,0.51964 -3.18717,1.20306 -4.61407,2.04179 -0.30533,0.17939 -0.60722,0.36724 -0.90302,0.56171 z m -0.61383,3.21522 c -0.52414,0.52202 -1.24672,0.84428 -2.0447,0.84428 -0.58262,0 -1.12554,-0.17224 -1.58063,-0.46752 -1.07685,1.15332 -2.06798,2.43179 -2.980792,3.82667 2.364052,1.74731 4.745302,3.11944 7.188992,4.11824 0.42916,-0.85619 1.31525,-1.44436 2.33813,-1.44436 0.0984,0 0.19499,0.006 0.29104,0.0164 0.60774,-1.58803 1.21682,-3.22527 1.80789,-4.92892 -1.68089,-0.508 -3.33692,-1.15226 -5.01993,-1.9648 z m 9.78349,-4.43257 c -0.28866,0.0839 -0.59399,0.12885 -0.91016,0.12885 -0.12224,0 -0.24342,-0.006 -0.36222,-0.0198 -0.50879,1.84203 -1.05251,3.60363 -1.61819,5.29961 1.38906,0.3511 2.80617,0.61383 4.28493,0.80724 0.2151,-0.4363 0.53631,-0.81015 0.9308,-1.08849 -0.31088,-1.10279 -0.70988,-2.15107 -1.19592,-3.1459 -0.33496,-0.68501 -0.71172,-1.34462 -1.12924,-1.98147 z m 3.11653,10.25922 c -1.12633,-0.35851 -1.95421,-1.38642 -2.01533,-2.61646 -1.5367,-0.20453 -3.01255,-0.48181 -4.46088,-0.85276 -0.61092,1.76266 -1.24036,3.45546 -1.86848,5.09508 0.59584,0.4789 0.97737,1.21391 0.97737,2.03703 0,0.10848 -0.007,0.21511 -0.0198,0.32041 2.31669,0.46064 4.71514,0.61622 7.22921,0.46488 0.16563,-1.55761 0.21722,-3.03954 0.15795,-4.44818 z"
       id="path6315"
       style="stroke-width:0.264583" /></g></svg>
