<?xml version="1.0" encoding="UTF-8" standalone="no"?>
<svg
   width="466.66pt"
   height="466.664pt"
   version="1.1"
   viewBox="0 0 466.66 466.664"
   id="svg2586"
   sodipodi:docname="noun-time-2607130.svg"
   inkscape:version="1.2.1 (9c6d41e410, 2022-07-14)"
   xmlns:inkscape="http://www.inkscape.org/namespaces/inkscape"
   xmlns:sodipodi="http://sodipodi.sourceforge.net/DTD/sodipodi-0.dtd"
   xmlns="http://www.w3.org/2000/svg"
   xmlns:svg="http://www.w3.org/2000/svg">
  <defs
     id="defs2590" />
  <sodipodi:namedview
     id="namedview2588"
     pagecolor="#ffffff"
     bordercolor="#000000"
     borderopacity="0.25"
     inkscape:showpageshadow="2"
     inkscape:pageopacity="0.0"
     inkscape:pagecheckerboard="0"
     inkscape:deskcolor="#d1d1d1"
     inkscape:document-units="pt"
     showgrid="false"
     inkscape:zoom="0.93964286"
     inkscape:cx="223.48917"
     inkscape:cy="404.40897"
     inkscape:window-width="1920"
     inkscape:window-height="1057"
     inkscape:window-x="-8"
     inkscape:window-y="-8"
     inkscape:window-maximized="1"
     inkscape:current-layer="svg2586" />
  <path
     d="M 233.33,0.004 C 171.447,0.004 112.1,24.586 68.34,68.344 24.582,112.102 0,171.454 0,233.334 c 0,61.88 24.582,121.23 68.34,164.99 43.758,43.758 103.11,68.34 164.99,68.34 61.88,0 121.23,-24.582 164.99,-68.34 43.758,-43.758 68.34,-103.11 68.34,-164.99 0,-40.957 -10.781,-81.195 -31.258,-116.67 C 414.922,81.195 385.464,51.738 349.996,31.258 314.523,10.781 274.285,0 233.326,0 Z m 0,420 c -49.508,0 -96.988,-19.668 -131.99,-54.676 -35.008,-35.004 -54.676,-82.484 -54.676,-131.99 0,-49.506 19.668,-96.988 54.676,-131.99 35.004,-35.008 82.484,-54.676 131.99,-54.676 49.506,0 96.988,19.668 131.99,54.676 35.008,35.004 54.676,82.484 54.676,131.99 0,32.766 -8.625,64.957 -25.012,93.332 -16.383,28.379 -39.945,51.941 -68.324,68.324 -28.375,16.387 -60.566,25.012 -93.332,25.012 z m 82.602,-137.2 V 282.8 c 4.4141,4.3828 6.9023,10.348 6.9023,16.57 0,6.2188 -2.4883,12.184 -6.9023,16.566 -4.4062,4.3672 -10.367,6.8008 -16.566,6.7656 -6.2031,0.0352 -12.164,-2.3984 -16.57,-6.7656 l -66.035,-66.035 h 0.004 c -2.125,-2.2188 -3.7891,-4.8359 -4.8984,-7.6992 -1.1992,-2.8047 -1.832,-5.8164 -1.8672,-8.8672 v -93.332 c 0,-8.3359 4.4453,-16.039 11.664,-20.207 7.2188,-4.168 16.117,-4.168 23.336,0 7.2188,4.168 11.664,11.871 11.664,20.207 v 83.766 z"
     id="path2584"
     style="fill:#4000fd;fill-opacity:1" />
</svg>
