<?xml version="1.0" encoding="UTF-8" standalone="no"?>
<svg
   width="482.32999pt"
   height="482.32199pt"
   version="1.1"
   viewBox="0 0 482.32999 482.32199"
   id="svg160"
   sodipodi:docname="noun-person-2394841.svg"
   inkscape:version="1.2.1 (9c6d41e410, 2022-07-14)"
   xmlns:inkscape="http://www.inkscape.org/namespaces/inkscape"
   xmlns:sodipodi="http://sodipodi.sourceforge.net/DTD/sodipodi-0.dtd"
   xmlns="http://www.w3.org/2000/svg"
   xmlns:svg="http://www.w3.org/2000/svg">
  <sodipodi:namedview
     id="namedview162"
     pagecolor="#ffffff"
     bordercolor="#000000"
     borderopacity="0.25"
     inkscape:showpageshadow="2"
     inkscape:pageopacity="0.0"
     inkscape:pagecheckerboard="0"
     inkscape:deskcolor="#d1d1d1"
     inkscape:document-units="pt"
     showgrid="false"
     inkscape:zoom="0.93964286"
     inkscape:cx="228.27822"
     inkscape:cy="337.36222"
     inkscape:window-width="1920"
     inkscape:window-height="1057"
     inkscape:window-x="-8"
     inkscape:window-y="-8"
     inkscape:window-maximized="1"
     inkscape:current-layer="svg160" />
  <defs
     id="defs68">
    <symbol
       id="v"
       overflow="visible">
      <path
         d="m 19.734,-1.1875 c -1.0117,0.53125 -2.0703,0.93359 -3.1719,1.2031 -1.1055,0.26953 -2.2578,0.40625 -3.4531,0.40625 -3.5859,0 -6.4219,-1 -8.5156,-3 -2.0859,-2 -3.125,-4.7109 -3.125,-8.1406 0,-3.4375 1.0391,-6.1562 3.125,-8.1562 2.0938,-2 4.9297,-3 8.5156,-3 1.1953,0 2.3477,0.13672 3.4531,0.40625 1.1016,0.27344 2.1602,0.66797 3.1719,1.1875 v 4.4531 c -1.0234,-0.69531 -2.0312,-1.207 -3.0312,-1.5312 -1,-0.33203 -2.0547,-0.5 -3.1562,-0.5 -1.9688,0 -3.5234,0.63672 -4.6562,1.9062 -1.1367,1.2617 -1.7031,3.0078 -1.7031,5.2344 0,2.2188 0.56641,3.9648 1.7031,5.2344 1.1328,1.2617 2.6875,1.8906 4.6562,1.8906 1.1016,0 2.1562,-0.16016 3.1562,-0.48438 1,-0.33203 2.0078,-0.84766 3.0312,-1.5469 z"
         id="path2" />
    </symbol>
    <symbol
       id="b"
       overflow="visible">
      <path
         d="m 14.453,-11.734 c -0.46094,-0.20703 -0.91406,-0.35938 -1.3594,-0.45312 -0.4375,-0.10156 -0.88672,-0.15625 -1.3438,-0.15625 -1.3242,0 -2.3438,0.42969 -3.0625,1.2812 -0.71094,0.84375 -1.0625,2.0586 -1.0625,3.6406 V 3.3e-4 H 2.4686 v -16.109 h 5.1562 v 2.6406 c 0.66406,-1.0508 1.4258,-1.8164 2.2812,-2.2969 0.85156,-0.48828 1.8828,-0.73438 3.0938,-0.73438 0.16406,0 0.34766,0.0078 0.54688,0.01563 0.20703,0.01172 0.50391,0.04297 0.89062,0.09375 z"
         id="path5" />
    </symbol>
    <symbol
       id="a"
       overflow="visible">
      <path
         d="m 18.562,-8.0938 v 1.4531 H 6.515 c 0.125,1.2109 0.5625,2.1211 1.3125,2.7344 0.75,0.60547 1.7969,0.90625 3.1406,0.90625 1.082,0 2.1914,-0.16016 3.3281,-0.48438 1.1328,-0.32031 2.3008,-0.8125 3.5,-1.4688 v 3.9688 c -1.2188,0.46875 -2.4375,0.82031 -3.6562,1.0469 -1.2188,0.23828 -2.4375,0.35938 -3.6562,0.35938 -2.918,0 -5.1836,-0.73828 -6.7969,-2.2188 -1.6172,-1.4883 -2.4219,-3.5703 -2.4219,-6.25 0,-2.625 0.78906,-4.6875 2.375,-6.1875 1.5938,-1.5078 3.7812,-2.2656 6.5625,-2.2656 2.5312,0 4.5547,0.76562 6.0781,2.2969 1.5195,1.5234 2.2812,3.5586 2.2812,6.1094 z m -5.2969,-1.7188 c 0,-0.97656 -0.28906,-1.7656 -0.85938,-2.3594 -0.57422,-0.60156 -1.3203,-0.90625 -2.2344,-0.90625 -1,0 -1.8125,0.28125 -2.4375,0.84375 -0.61719,0.5625 -1,1.3711 -1.1562,2.4219 z"
         id="path8" />
    </symbol>
    <symbol
       id="g"
       overflow="visible">
      <path
         d="m 9.7031,-7.25 c -1.0742,0 -1.8867,0.18359 -2.4375,0.54688 -0.54297,0.36719 -0.8125,0.90234 -0.8125,1.6094 0,0.65625 0.21875,1.1719 0.65625,1.5469 0.4375,0.36719 1.0469,0.54688 1.8281,0.54688 0.96875,0 1.7812,-0.34766 2.4375,-1.0469 0.66406,-0.69531 1,-1.5664 1,-2.6094 v -0.59375 z m 7.8594,-1.9375 V 0 H 12.375 v -2.3906 c -0.6875,0.98047 -1.4648,1.6953 -2.3281,2.1406 -0.86719,0.44531 -1.918,0.67188 -3.1562,0.67188 -1.668,0 -3.0234,-0.48438 -4.0625,-1.4531 -1.043,-0.97656 -1.5625,-2.2422 -1.5625,-3.7969 0,-1.8945 0.64844,-3.2812 1.9531,-4.1562 1.3008,-0.88281 3.3438,-1.3281 6.125,-1.3281 h 3.0312 v -0.40625 c 0,-0.8125 -0.32422,-1.4062 -0.96875,-1.7812 -0.63672,-0.38281 -1.6367,-0.57812 -3,-0.57812 -1.1055,0 -2.1328,0.10938 -3.0781,0.32812 -0.94922,0.21875 -1.8359,0.55469 -2.6562,1 v -3.9375 c 1.1016,-0.26953 2.2109,-0.47266 3.3281,-0.60938 1.1133,-0.13281 2.2266,-0.20312 3.3438,-0.20312 2.9062,0 5,0.57422 6.2812,1.7188 1.2891,1.1484 1.9375,3.0117 1.9375,5.5938 z"
         id="path11" />
    </symbol>
    <symbol
       id="c"
       overflow="visible">
      <path
         d="m 8.0938,-20.688 v 4.5781 h 5.3125 v 3.6719 H 8.0938 v 6.8438 c 0,0.75 0.14844,1.2578 0.45312,1.5156 0.30078,0.26172 0.89062,0.39062 1.7656,0.39062 h 2.6562 v 3.6875 h -4.4219 c -2.0312,0 -3.4766,-0.42188 -4.3281,-1.2656 -0.84375,-0.85156 -1.2656,-2.2969 -1.2656,-4.3281 v -6.8438 h -2.5625 v -3.6719 h 2.5625 v -4.5781 z"
         id="path14" />
    </symbol>
    <symbol
       id="f"
       overflow="visible">
      <path
         d="m 13.438,-13.75 v -8.6406 h 5.1875 V 4e-4 H 13.438 v -2.3281 c -0.71094,0.94922 -1.4922,1.6484 -2.3438,2.0938 -0.85547,0.4375 -1.8438,0.65625 -2.9688,0.65625 -1.9805,0 -3.6094,-0.78516 -4.8906,-2.3594 -1.2734,-1.582 -1.9062,-3.6172 -1.9062,-6.1094 0,-2.4766 0.63281,-4.5039 1.9062,-6.0781 1.2812,-1.582 2.9102,-2.375 4.8906,-2.375 1.1133,0 2.0977,0.22656 2.9531,0.67188 0.86328,0.4375 1.6484,1.1328 2.3594,2.0781 z m -3.3906,10.422 c 1.1016,0 1.9414,-0.39844 2.5156,-1.2031 0.58203,-0.80078 0.875,-1.9727 0.875,-3.5156 0,-1.5312 -0.29297,-2.6953 -0.875,-3.5 -0.57422,-0.8125 -1.4141,-1.2188 -2.5156,-1.2188 -1.0938,0 -1.9336,0.40625 -2.5156,1.2188 -0.58594,0.80469 -0.875,1.9688 -0.875,3.5 0,1.543 0.28906,2.7148 0.875,3.5156 0.58203,0.80469 1.4219,1.2031 2.5156,1.2031 z"
         id="path17" />
    </symbol>
    <symbol
       id="l"
       overflow="visible">
      <path
         d="m 11.047,-3.3281 c 1.1016,0 1.9453,-0.39844 2.5312,-1.2031 0.58203,-0.80078 0.875,-1.9727 0.875,-3.5156 0,-1.5312 -0.29297,-2.6953 -0.875,-3.5 -0.58594,-0.8125 -1.4297,-1.2188 -2.5312,-1.2188 -1.1055,0 -1.9531,0.40625 -2.5469,1.2188 -0.58594,0.8125 -0.875,1.9805 -0.875,3.5 0,1.5312 0.28906,2.7031 0.875,3.5156 0.59375,0.80469 1.4414,1.2031 2.5469,1.2031 z m -3.4219,-10.422 c 0.70703,-0.94531 1.4922,-1.6406 2.3594,-2.0781 0.86328,-0.44531 1.8594,-0.67188 2.9844,-0.67188 1.9766,0 3.6016,0.79297 4.875,2.375 1.2812,1.5742 1.9219,3.6016 1.9219,6.0781 0,2.4922 -0.64062,4.5273 -1.9219,6.1094 -1.2734,1.5742 -2.8984,2.3594 -4.875,2.3594 -1.125,0 -2.1211,-0.22656 -2.9844,-0.67188 -0.86719,-0.44531 -1.6523,-1.1406 -2.3594,-2.0781 V -6e-5 H 2.4689 v -22.391 h 5.1562 z"
         id="path20" />
    </symbol>
    <symbol
       id="k"
       overflow="visible">
      <path
         d="m 0.35938,-16.109 h 5.1562 l 4.3281,10.922 3.6875,-10.922 h 5.1406 l -6.7656,17.641 c -0.6875,1.7891 -1.4844,3.0391 -2.3906,3.75 -0.90625,0.71875 -2.1055,1.0781 -3.5938,1.0781 h -2.9688 v -3.375 h 1.6094 c 0.875,0 1.5078,-0.14062 1.9062,-0.42188 0.39453,-0.28125 0.70312,-0.78125 0.92188,-1.5 l 0.15625,-0.4375 z"
         id="path23" />
    </symbol>
    <symbol
       id="j"
       overflow="visible">
      <path
         d="m 22.016,-1.5938 c -1.3867,0.66797 -2.8242,1.1719 -4.3125,1.5156 -1.4805,0.33203 -3.0117,0.5 -4.5938,0.5 -3.5859,0 -6.4219,-1 -8.5156,-3 -2.0859,-2 -3.125,-4.7109 -3.125,-8.1406 0,-3.4688 1.0625,-6.1914 3.1875,-8.1719 2.1328,-1.9883 5.0508,-2.9844 8.75,-2.9844 1.4258,0 2.7969,0.13672 4.1094,0.40625 1.3125,0.27344 2.5469,0.66797 3.7031,1.1875 v 4.4531 c -1.1992,-0.67578 -2.3906,-1.1797 -3.5781,-1.5156 -1.1797,-0.34375 -2.3594,-0.51562 -3.5469,-0.51562 -2.2109,0 -3.9141,0.62109 -5.1094,1.8594 -1.1992,1.2305 -1.7969,2.9922 -1.7969,5.2812 0,2.2734 0.57031,4.0273 1.7188,5.2656 1.1562,1.2422 2.7969,1.8594 4.9219,1.8594 0.57031,0 1.1016,-0.035156 1.5938,-0.10938 0.5,-0.070313 0.94531,-0.1875 1.3438,-0.34375 v -4.1719 h -3.3906 v -3.7031 h 8.6406 z"
         id="path26" />
    </symbol>
    <symbol
       id="e"
       overflow="visible">
      <path
         d="m 2.2969,-6.2812 v -9.8281 h 5.1875 v 1.6094 c 0,0.875 -0.00781,1.9766 -0.015625,3.2969 -0.011719,1.3125 -0.015625,2.1875 -0.015625,2.625 0,1.293 0.03125,2.2266 0.09375,2.7969 0.070313,0.57422 0.19141,0.99219 0.35938,1.25 0.20703,0.33594 0.47656,0.59375 0.8125,0.78125 0.34375,0.17969 0.73828,0.26562 1.1875,0.26562 1.0703,0 1.9141,-0.41016 2.5312,-1.2344 0.61328,-0.82031 0.92188,-1.9688 0.92188,-3.4375 v -7.9531 h 5.1406 v 16.109 h -5.1406 v -2.3281 c -0.78125,0.9375 -1.6094,1.6328 -2.4844,2.0781 -0.86719,0.44531 -1.8203,0.67188 -2.8594,0.67188 -1.8672,0 -3.2891,-0.56641 -4.2656,-1.7031 -0.96875,-1.1445 -1.4531,-2.8125 -1.4531,-5 z"
         id="path29" />
    </symbol>
    <symbol
       id="u"
       overflow="visible">
      <path
         d="M 2.4688,-16.109 H 7.625 V 0 H 2.4688 Z m 0,-6.2812 H 7.625 v 4.2031 H 2.4688 Z"
         id="path32" />
    </symbol>
    <symbol
       id="t"
       overflow="visible">
      <path
         d="M 2.4688,-22.391 H 7.625 V 0 H 2.4688 Z"
         id="path35" />
    </symbol>
    <symbol
       id="i"
       overflow="visible">
      <path
         d="M 18.672,-9.8125 V 0 h -5.1719 v -7.4844 c 0,-1.4062 -0.03125,-2.375 -0.09375,-2.9062 -0.0625,-0.5312 -0.17188,-0.91406 -0.32812,-1.1562 -0.19922,-0.34375 -0.47656,-0.60938 -0.82812,-0.79688 -0.34375,-0.1875 -0.73438,-0.28125 -1.1719,-0.28125 -1.0742,0 -1.918,0.41797 -2.5312,1.25 -0.61719,0.83594 -0.92188,1.9844 -0.92188,3.4531 V 7e-5 h -5.1562 v -22.391 h 5.1562 v 8.6406 c 0.78125,-0.94531 1.6016,-1.6406 2.4688,-2.0781 0.875,-0.44531 1.8438,-0.67188 2.9062,-0.67188 1.8516,0 3.2578,0.57422 4.2188,1.7188 0.96875,1.1367 1.4531,2.793 1.4531,4.9688 z"
         id="path38" />
    </symbol>
    <symbol
       id="h"
       overflow="visible">
      <path
         d="m 17.406,-13.438 c 0.65625,-1 1.4297,-1.7578 2.3281,-2.2812 0.89453,-0.51953 1.8789,-0.78125 2.9531,-0.78125 1.8516,0 3.2656,0.57422 4.2344,1.7188 0.96875,1.1367 1.4531,2.793 1.4531,4.9688 v 9.8125 h -5.1875 v -8.4062 c 0.0078,-0.125 0.01563,-0.25391 0.01563,-0.39062 0.0078,-0.13281 0.01563,-0.32812 0.01563,-0.57812 0,-1.1328 -0.16797,-1.957 -0.5,-2.4688 -0.33594,-0.51953 -0.875,-0.78125 -1.625,-0.78125 -0.98047,0 -1.7344,0.40625 -2.2656,1.2188 -0.53125,0.80469 -0.80859,1.9688 -0.82812,3.5 v 7.9062 h -5.1719 v -8.4062 c 0,-1.7812 -0.15625,-2.9258 -0.46875,-3.4375 -0.30469,-0.51953 -0.85156,-0.78125 -1.6406,-0.78125 -0.99219,0 -1.7578,0.40625 -2.2969,1.2188 -0.53125,0.8125 -0.79688,1.9766 -0.79688,3.4844 v 7.9219 H 2.4528 v -16.109 h 5.1719 v 2.3594 c 0.63281,-0.91406 1.3594,-1.6016 2.1719,-2.0625 0.82031,-0.45703 1.7266,-0.6875 2.7188,-0.6875 1.1133,0 2.0977,0.27344 2.9531,0.8125 0.85156,0.53125 1.5,1.2812 1.9375,2.25 z"
         id="path41" />
    </symbol>
    <symbol
       id="s"
       overflow="visible">
      <path
         d="m 2.7031,-21.484 h 14.953 v 4.1875 H 8.2499 v 4 h 8.8438 V -9.109 H 8.2499 V 4e-4 H 2.703 Z"
         id="path44" />
    </symbol>
    <symbol
       id="d"
       overflow="visible">
      <path
         d="m 10.141,-12.828 c -1.1367,0 -2.0078,0.41406 -2.6094,1.2344 -0.59375,0.82422 -0.89062,2.0078 -0.89062,3.5469 0,1.543 0.29688,2.7266 0.89062,3.5469 0.60156,0.82422 1.4727,1.2344 2.6094,1.2344 1.125,0 1.9844,-0.41016 2.5781,-1.2344 0.59375,-0.82031 0.89062,-2.0039 0.89062,-3.5469 0,-1.5391 -0.29688,-2.7227 -0.89062,-3.5469 -0.59375,-0.82031 -1.4531,-1.2344 -2.5781,-1.2344 z m 0,-3.6719 c 2.7695,0 4.9375,0.75 6.5,2.25 1.5625,1.4922 2.3438,3.5586 2.3438,6.2031 0,2.6484 -0.78125,4.7188 -2.3438,6.2188 -1.56255,1.5 -3.7305,2.25 -6.5,2.25 -2.7812,0 -4.9609,-0.75 -6.5312,-2.25 -1.5625,-1.5 -2.3438,-3.5703 -2.3438,-6.2188 0,-2.6445 0.78125,-4.7109 2.3438,-6.2031 1.5703,-1.5 3.75,-2.25 6.5312,-2.25 z"
         id="path47" />
    </symbol>
    <symbol
       id="r"
       overflow="visible">
      <path
         d="m 13.078,-22.391 v 3.375 h -2.8438 c -0.73047,0 -1.2422,0.13672 -1.5312,0.40625 -0.28125,0.26172 -0.42188,0.71875 -0.42188,1.375 v 1.125 h 4.3906 v 3.6719 h -4.3906 v 12.438 h -5.1562 v -12.438 h -2.5625 v -3.6719 h 2.5625 v -1.125 c 0,-1.7578 0.48828,-3.0547 1.4688,-3.8906 0.97656,-0.84375 2.4922,-1.2656 4.5469,-1.2656 z"
         id="path50" />
    </symbol>
    <symbol
       id="q"
       overflow="visible">
      <path
         d="m 2.7031,-21.484 h 6.1875 l 7.8125,14.734 v -14.734 h 5.25 V 0 H 15.7656 L 7.9531,-14.734 V 0 h -5.25 z"
         id="path53" />
    </symbol>
    <symbol
       id="p"
       overflow="visible">
      <path
         d="M 18.672,-9.8125 V 0 h -5.1719 v -7.5156 c 0,-1.3828 -0.03125,-2.3438 -0.09375,-2.875 -0.0625,-0.5312 -0.17188,-0.91406 -0.32812,-1.1562 -0.19922,-0.34375 -0.47656,-0.60938 -0.82812,-0.79688 -0.34375,-0.1875 -0.73438,-0.28125 -1.1719,-0.28125 -1.0742,0 -1.918,0.41797 -2.5312,1.25 -0.61719,0.83594 -0.92188,1.9844 -0.92188,3.4531 V 7e-5 h -5.1562 v -16.109 h 5.1562 v 2.3594 c 0.78125,-0.94531 1.6016,-1.6406 2.4688,-2.0781 0.875,-0.44531 1.8438,-0.67188 2.9062,-0.67188 1.8516,0 3.2578,0.57422 4.2188,1.7188 0.96875,1.1367 1.4531,2.793 1.4531,4.9688 z"
         id="path56" />
    </symbol>
    <symbol
       id="o"
       overflow="visible">
      <path
         d="m 2.7031,-21.484 h 9.2031 c 2.7266,0 4.8203,0.60938 6.2812,1.8281 1.4688,1.2109 2.2031,2.9375 2.2031,5.1875 0,2.25 -0.73438,3.9844 -2.2031,5.2031 -1.4609,1.2109 -3.5547,1.8125 -6.2812,1.8125 H 8.25 V 3e-4 H 2.7031 Z m 5.5469,4.0156 v 6 h 3.0625 c 1.0703,0 1.8984,-0.25781 2.4844,-0.78125 0.58203,-0.51953 0.875,-1.2578 0.875,-2.2188 0,-0.96875 -0.29297,-1.707 -0.875,-2.2188 -0.58594,-0.51953 -1.4141,-0.78125 -2.4844,-0.78125 z"
         id="path59" />
    </symbol>
    <symbol
       id="n"
       overflow="visible">
      <path
         d="M 2.4688,-16.109 H 7.625 v 15.828 c 0,2.1562 -0.52344,3.8008 -1.5625,4.9375 -1.0312,1.1328 -2.5312,1.7031 -4.5,1.7031 h -2.5469 v -3.375 h 0.89062 c 0.97656,0 1.6484,-0.22656 2.0156,-0.67188 0.36328,-0.4375 0.54688,-1.3047 0.54688,-2.5938 z m 0,-6.2812 H 7.625 v 4.2031 H 2.4688 Z"
         id="path62" />
    </symbol>
    <symbol
       id="m"
       overflow="visible">
      <path
         d="m 15.5,-15.609 v 4.2031 c -0.69922,-0.47656 -1.4023,-0.83203 -2.1094,-1.0625 -0.71094,-0.23828 -1.4453,-0.35938 -2.2031,-0.35938 -1.4375,0 -2.5586,0.42188 -3.3594,1.2656 -0.79297,0.84375 -1.1875,2.0156 -1.1875,3.5156 0,1.5117 0.39453,2.6875 1.1875,3.5312 0.80078,0.83594 1.9219,1.25 3.3594,1.25 0.8125,0 1.5781,-0.11719 2.2969,-0.35938 0.72656,-0.23828 1.3984,-0.59375 2.0156,-1.0625 v 4.2188 c -0.8125,0.29297 -1.6367,0.50781 -2.4688,0.65625 -0.82422,0.15625 -1.6523,0.23438 -2.4844,0.23438 -2.9062,0 -5.1836,-0.74219 -6.8281,-2.2344 -1.6367,-1.5 -2.4531,-3.5781 -2.4531,-6.2344 0,-2.6563 0.81641,-4.7266 2.4531,-6.2188 1.6445,-1.4883 3.9219,-2.2344 6.8281,-2.2344 0.84375,0 1.6758,0.07422 2.5,0.21875 0.82031,0.14844 1.6406,0.37109 2.4531,0.67188 z"
         id="path65" />
    </symbol>
  </defs>
  <g
     id="g158"
     transform="translate(-108.839,-38.841)"
     style="fill:#013fff;fill-opacity:1">
    <path
       d="m 197.35,466.55 c 41.605,34.105 94.77,54.613 152.65,54.613 60.703,0 116.19,-22.594 158.63,-59.742 50.531,-44.238 82.539,-109.15 82.539,-181.42 0,-132.98 -108.19,-241.16 -241.16,-241.16 -132.98,0 -241.17,108.18 -241.17,241.16 0,75.098 34.52,142.29 88.516,186.55 z M 349.99,131.1 c 62.266,0 112.75,50.477 112.75,112.74 0,62.266 -50.484,159.76 -112.75,159.76 -62.262,0 -112.74,-97.492 -112.74,-159.76 0.004,-62.254 50.484,-112.74 112.74,-112.74 z m 156.12,325.96 c -41.66,36.777 -96.309,59.16 -156.12,59.16 -57.055,0 -109.44,-20.332 -150.32,-54.137 -5.6758,-4.6914 -11.09,-9.6953 -16.301,-14.891 12.301,-23.969 46.055,-43.832 90.891,-54.508 21.316,21.621 47.086,35.84 75.719,35.84 28.629,0 54.41,-14.219 75.73,-35.84 44.816,10.676 78.566,30.527 90.879,54.48 -3.3984,3.3984 -6.8789,6.7148 -10.484,9.8945 z"
       id="path70"
       style="fill:#013fff;fill-opacity:1" />
  </g>
</svg>
